<svg width="900" height="320" viewBox="0 0 900 320" xmlns="http://www.w3.org/2000/svg">
  <defs>
    <linearGradient id="abg" x1="0" y1="0" x2="1" y2="1">
      <stop offset="0%" stop-color="#0a0a14"/>
      <stop offset="100%" stop-color="#111122"/>
    </linearGradient>
  </defs>

  <rect width="900" height="320" fill="url(#abg)" rx="14"/>

  <text x="450" y="30" text-anchor="middle" font-family="sans-serif" font-size="13" font-weight="700" letter-spacing="2" fill="#505068">SYSTEM ARCHITECTURE</text>

  <!-- Extension layer -->
  <rect x="40" y="52" width="350" height="240" rx="10" fill="#161624" stroke="rgba(229,9,20,0.15)" stroke-width="1"/>
  <text x="60" y="76" font-family="sans-serif" font-size="12" font-weight="700" fill="#E50914">CHROME EXTENSION (Client)</text>

  <rect x="60" y="90" width="140" height="36" rx="8" fill="rgba(229,9,20,0.08)" stroke="rgba(229,9,20,0.15)" stroke-width="1"/>
  <text x="130" y="113" text-anchor="middle" font-family="sans-serif" font-size="10" font-weight="600" fill="#ff7070">Popup UI</text>

  <rect x="210" y="90" width="160" height="36" rx="8" fill="rgba(229,9,20,0.08)" stroke="rgba(229,9,20,0.15)" stroke-width="1"/>
  <text x="290" y="113" text-anchor="middle" font-family="sans-serif" font-size="10" font-weight="600" fill="#ff7070">Content Script (YT)</text>

  <rect x="60" y="138" width="100" height="30" rx="6" fill="rgba(99,102,241,0.08)" stroke="rgba(99,102,241,0.15)" stroke-width="1"/>
  <text x="110" y="157" text-anchor="middle" font-family="sans-serif" font-size="9" fill="#818cf8">Notes &amp; OCR</text>

  <rect x="170" y="138" width="80" height="30" rx="6" fill="rgba(99,102,241,0.08)" stroke="rgba(99,102,241,0.15)" stroke-width="1"/>
  <text x="210" y="157" text-anchor="middle" font-family="sans-serif" font-size="9" fill="#818cf8">AI Chat</text>

  <rect x="260" y="138" width="110" height="30" rx="6" fill="rgba(99,102,241,0.08)" stroke="rgba(99,102,241,0.15)" stroke-width="1"/>
  <text x="315" y="157" text-anchor="middle" font-family="sans-serif" font-size="9" fill="#818cf8">Quiz / Flashcards</text>

  <rect x="60" y="180" width="120" height="30" rx="6" fill="rgba(16,185,129,0.08)" stroke="rgba(16,185,129,0.15)" stroke-width="1"/>
  <text x="120" y="199" text-anchor="middle" font-family="sans-serif" font-size="9" fill="#10b981">Google Auth</text>

  <rect x="190" y="180" width="80" height="30" rx="6" fill="rgba(16,185,129,0.08)" stroke="rgba(16,185,129,0.15)" stroke-width="1"/>
  <text x="230" y="199" text-anchor="middle" font-family="sans-serif" font-size="9" fill="#10b981">PDF Export</text>

  <rect x="280" y="180" width="90" height="30" rx="6" fill="rgba(16,185,129,0.08)" stroke="rgba(16,185,129,0.15)" stroke-width="1"/>
  <text x="325" y="199" text-anchor="middle" font-family="sans-serif" font-size="9" fill="#10b981">Share Rooms</text>

  <rect x="60" y="222" width="130" height="30" rx="6" fill="rgba(245,158,11,0.08)" stroke="rgba(245,158,11,0.15)" stroke-width="1"/>
  <text x="125" y="241" text-anchor="middle" font-family="sans-serif" font-size="9" fill="#f59e0b">KaTeX + html2canvas</text>

  <rect x="200" y="222" width="80" height="30" rx="6" fill="rgba(245,158,11,0.08)" stroke="rgba(245,158,11,0.15)" stroke-width="1"/>
  <text x="240" y="241" text-anchor="middle" font-family="sans-serif" font-size="9" fill="#f59e0b">jsPDF</text>

  <rect x="290" y="222" width="80" height="30" rx="6" fill="rgba(245,158,11,0.08)" stroke="rgba(245,158,11,0.15)" stroke-width="1"/>
  <text x="330" y="241" text-anchor="middle" font-family="sans-serif" font-size="9" fill="#f59e0b">History</text>

  <rect x="60" y="262" width="310" height="22" rx="6" fill="rgba(229,9,20,0.05)"/>
  <text x="215" y="277" text-anchor="middle" font-family="sans-serif" font-size="9" fill="#606080">background.js · content.js · manifest v3</text>

  <!-- Arrows -->
  <line x1="396" y1="130" x2="500" y2="130" stroke="rgba(229,9,20,0.3)" stroke-width="2" stroke-dasharray="5,4"/>
  <polygon points="496,126 504,130 496,134" fill="rgba(229,9,20,0.4)"/>
  <text x="448" y="120" text-anchor="middle" font-family="sans-serif" font-size="8" fill="#606080">REST API</text>
  <text x="448" y="144" text-anchor="middle" font-family="sans-serif" font-size="8" fill="#606080">JWT Auth</text>

  <!-- Backend layer -->
  <rect x="510" y="52" width="350" height="240" rx="10" fill="#161624" stroke="rgba(16,185,129,0.15)" stroke-width="1"/>
  <text x="530" y="76" font-family="sans-serif" font-size="12" font-weight="700" fill="#10b981">BACKEND (Node.js + Express)</text>

  <rect x="530" y="90" width="120" height="36" rx="8" fill="rgba(16,185,129,0.08)" stroke="rgba(16,185,129,0.15)" stroke-width="1"/>
  <text x="590" y="113" text-anchor="middle" font-family="sans-serif" font-size="10" font-weight="600" fill="#34d399">Auth Routes</text>

  <rect x="660" y="90" width="180" height="36" rx="8" fill="rgba(16,185,129,0.08)" stroke="rgba(16,185,129,0.15)" stroke-width="1"/>
  <text x="750" y="113" text-anchor="middle" font-family="sans-serif" font-size="10" font-weight="600" fill="#34d399">Video / Room CRUD</text>

  <rect x="530" y="140" width="130" height="30" rx="6" fill="rgba(168,85,247,0.08)" stroke="rgba(168,85,247,0.15)" stroke-width="1"/>
  <text x="595" y="159" text-anchor="middle" font-family="sans-serif" font-size="9" fill="#a78bfa">Google OAuth Verify</text>

  <rect x="670" y="140" width="170" height="30" rx="6" fill="rgba(168,85,247,0.08)" stroke="rgba(168,85,247,0.15)" stroke-width="1"/>
  <text x="755" y="159" text-anchor="middle" font-family="sans-serif" font-size="9" fill="#a78bfa">AI Proxy (Groq API)</text>

  <rect x="530" y="184" width="130" height="30" rx="6" fill="rgba(245,158,11,0.08)" stroke="rgba(245,158,11,0.15)" stroke-width="1"/>
  <text x="595" y="203" text-anchor="middle" font-family="sans-serif" font-size="9" fill="#f59e0b">Quiz Generator</text>

  <rect x="670" y="184" width="170" height="30" rx="6" fill="rgba(245,158,11,0.08)" stroke="rgba(245,158,11,0.15)" stroke-width="1"/>
  <text x="755" y="203" text-anchor="middle" font-family="sans-serif" font-size="9" fill="#f59e0b">Flashcard Generator</text>

  <!-- Database -->
  <rect x="560" y="228" width="170" height="50" rx="10" fill="rgba(99,102,241,0.08)" stroke="rgba(99,102,241,0.2)" stroke-width="1.2"/>
  <text x="645" y="250" text-anchor="middle" font-family="sans-serif" font-size="11" font-weight="700" fill="#818cf8">MongoDB Atlas</text>
  <text x="645" y="266" text-anchor="middle" font-family="sans-serif" font-size="8.5" fill="#606080">Users · Videos · Rooms</text>

  <!-- External: Groq -->
  <rect x="750" y="228" width="100" height="50" rx="10" fill="rgba(229,9,20,0.06)" stroke="rgba(229,9,20,0.15)" stroke-width="1"/>
  <text x="800" y="250" text-anchor="middle" font-family="sans-serif" font-size="11" font-weight="700" fill="#ff6b6b">Groq API</text>
  <text x="800" y="266" text-anchor="middle" font-family="sans-serif" font-size="8.5" fill="#606080">Llama 3.3/4 Scout</text>
</svg>
