<svg width="420" height="520" viewBox="0 0 420 520" xmlns="http://www.w3.org/2000/svg">
  <defs>
    <linearGradient id="acc" x1="0" y1="0" x2="1" y2="1">
      <stop offset="0%" stop-color="#6366f1"/>
      <stop offset="100%" stop-color="#a855f7"/>
    </linearGradient>
    <clipPath id="clip"><rect width="420" height="520" rx="14"/></clipPath>
  </defs>

  <rect x="4" y="6" width="420" height="520" rx="14" fill="rgba(0,0,0,0.5)"/>
  <rect width="420" height="520" rx="14" fill="#07070d" clip-path="url(#clip)"/>

  <!-- HEADER -->
  <rect width="420" height="44" fill="#0d0d16"/>
  <rect width="420" height="1" y="44" fill="rgba(255,255,255,0.06)"/>
  <rect x="12" y="9" width="26" height="26" rx="7" fill="url(#acc)"/>
  <g transform="translate(18,14)" fill="none" stroke="white" stroke-width="1.8" stroke-linecap="round">
    <path d="M0 5l7-3.5 7 3.5-7 3.5z"/>
    <path d="M2.5 6v3.5c2 2 5.5 2 8 0V6"/>
  </g>
  <text x="44" y="27" font-family="sans-serif" font-size="11" font-weight="800" letter-spacing="1.5" fill="url(#acc)">NOTEPILOT</text>
  <rect x="310" y="13" width="96" height="18" rx="9" fill="rgba(16,185,129,0.08)" stroke="rgba(16,185,129,0.15)" stroke-width="1"/>
  <circle cx="322" cy="22" r="3.5" fill="#10b981"/>
  <text x="330" y="26.5" font-family="sans-serif" font-size="9" font-weight="600" fill="#10b981">Video detected</text>

  <!-- VIDEO BAR -->
  <rect y="44" width="420" height="36" fill="rgba(99,102,241,0.04)"/>
  <rect y="80" width="420" height="1" fill="rgba(255,255,255,0.06)"/>
  <text x="12" y="57" font-family="sans-serif" font-size="7" font-weight="700" letter-spacing="1" fill="#818cf8">NOW WATCHING</text>
  <text x="12" y="71" font-family="sans-serif" font-size="10" fill="#9090a8">Introduction to Circular Motion — Physics 101</text>
  <rect x="310" y="50" width="96" height="24" rx="6" fill="url(#acc)"/>
  <text x="358" y="66" text-anchor="middle" font-family="sans-serif" font-size="10" font-weight="600" fill="white">⊙  Capture</text>

  <!-- TABS -->
  <rect y="80" width="420" height="34" fill="#0d0d16"/>
  <rect y="114" width="420" height="1" fill="rgba(255,255,255,0.06)"/>
  <text x="105" y="102" text-anchor="middle" font-family="sans-serif" font-size="11" font-weight="600" fill="#55556a">Notes</text>
  <rect x="210" y="80" width="210" height="34" fill="rgba(99,102,241,0.04)"/>
  <rect x="210" y="112" width="210" height="2" fill="#6366f1"/>
  <text x="315" y="102" text-anchor="middle" font-family="sans-serif" font-size="11" font-weight="600" fill="#818cf8">AI Chat</text>

  <!-- CHAT MESSAGES -->
  <!-- Bot message 1 -->
  <rect x="10" y="122" width="240" height="36" rx="10" fill="#111119" stroke="rgba(255,255,255,0.06)" stroke-width="1"/>
  <text x="20" y="136" font-family="sans-serif" font-size="9.5" fill="#9090a8">👋 Load a YouTube video, then</text>
  <text x="20" y="150" font-family="sans-serif" font-size="9.5" fill="#9090a8">ask me anything about it!</text>

  <!-- User message 1 -->
  <rect x="130" y="170" width="280" height="24" rx="10" fill="url(#acc)"/>
  <text x="270" y="186" text-anchor="middle" font-family="sans-serif" font-size="9.5" fill="white">What is the centripetal force formula?</text>

  <!-- Bot message 2 — with math -->
  <rect x="10" y="204" width="340" height="90" rx="10" fill="#111119" stroke="rgba(255,255,255,0.06)" stroke-width="1"/>
  <text x="20" y="220" font-family="sans-serif" font-size="9.5" fill="#9090a8">The centripetal force is given by:</text>
  <!-- fake math display block -->
  <rect x="80" y="226" width="190" height="32" rx="6" fill="rgba(99,102,241,0.04)" stroke="rgba(99,102,241,0.08)" stroke-width="1"/>
  <text x="175" y="248" text-anchor="middle" font-family="Georgia, serif" font-size="15" font-style="italic" fill="#eeeef5">F = mv² / r</text>
  <text x="20" y="272" font-family="sans-serif" font-size="9.5" fill="#9090a8">where m = mass, v = velocity, r = radius.</text>
  <text x="20" y="285" font-family="sans-serif" font-size="9.5" fill="#9090a8">This force always points toward the center.</text>
  <!-- PDF toggle -->
  <rect x="266" y="278" width="70" height="14" rx="4" fill="rgba(99,102,241,0.07)" stroke="rgba(99,102,241,0.12)" stroke-width="1"/>
  <text x="301" y="288.5" text-anchor="middle" font-family="sans-serif" font-size="8" fill="#55556a">☑ PDF</text>

  <!-- User message 2 -->
  <rect x="160" y="306" width="250" height="24" rx="10" fill="url(#acc)"/>
  <text x="285" y="322" text-anchor="middle" font-family="sans-serif" font-size="9.5" fill="white">How is tension T related to this?</text>

  <!-- Bot message 3 — thinking -->
  <rect x="10" y="340" width="200" height="28" rx="10" fill="#111119" stroke="rgba(255,255,255,0.06)" stroke-width="1"/>
  <text x="20" y="356" font-family="sans-serif" font-size="9.5" fill="#9090a8">When a particle moves in a circle on</text>
  <text x="20" y="369" font-family="sans-serif" font-size="9.5" fill="#9090a8">a string, the tension T provides the...</text>

  <!-- CHAT INPUT BAR -->
  <rect y="400" width="420" height="1" fill="rgba(255,255,255,0.08)"/>
  <rect y="400" width="420" height="50" fill="#0d0d16"/>
  <rect x="10" y="411" width="358" height="28" rx="7" fill="#07070d" stroke="rgba(255,255,255,0.08)" stroke-width="1"/>
  <text x="22" y="429" font-family="sans-serif" font-size="10" fill="#55556a">Ask about the video...</text>
  <!-- Send btn -->
  <rect x="374" y="411" width="36" height="28" rx="7" fill="url(#acc)"/>
  <text x="392" y="429" text-anchor="middle" font-family="sans-serif" font-size="13" fill="white">➤</text>

  <!-- EXPORT FOOTER -->
  <rect y="450" width="420" height="1" fill="rgba(255,255,255,0.06)"/>
  <rect y="450" width="420" height="70" fill="#0d0d16"/>
  <rect x="10" y="462" width="254" height="28" rx="7" fill="#07070d" stroke="rgba(255,255,255,0.08)" stroke-width="1"/>
  <text x="22" y="480" font-family="sans-serif" font-size="10" fill="#55556a">Physics 101 — Study Notes</text>
  <rect x="272" y="462" width="138" height="28" rx="7" fill="url(#acc)"/>
  <text x="341" y="480" text-anchor="middle" font-family="sans-serif" font-size="10" font-weight="600" fill="white">↓  Export PDF</text>
</svg>
